<svg width="0" height="0" fill="none" style="visibility: hidden; position: absolute;" aria-hidden="true">
    <symbol id="logo" width="148" height="37" viewBox="0 0 148 37" fill="none" xmlns="http://www.w3.org/2000/svg">
        <g clip-path="url(#clip0_1201_532__logo)" filter="url(#filter0_d_1201_532__logo)">
            <path d="M143.752 21.6557V25.1203H140.846C137.745 25.0228 136.088 23.3481 136.088 20.2026V12.2899H134.059V9.25068H136.088V5.84814H140.376V9.21523H143.655V12.2456H140.376V19.7773C140.376 20.7962 140.58 21.6114 142.148 21.6114L143.752 21.6557Z" fill="white"/>
            <path d="M116.965 17.2163V16.9859C116.919 15.9668 117.074 14.9486 117.422 13.9896C117.77 13.0305 118.303 12.1496 118.992 11.3972C119.681 10.6449 120.512 10.0359 121.437 9.60515C122.362 9.17443 123.362 8.93046 124.382 8.88721C124.585 8.88721 124.798 8.88721 125.002 8.88721C129.051 8.88721 132.604 11.2442 132.604 16.8619V18.0581H121.351C121.466 20.6454 122.866 22.1075 125.223 22.1075C127.252 22.1075 128.2 21.2214 128.475 19.9277H132.525C132.028 23.3037 129.335 25.1821 125.073 25.1821C120.394 25.1467 116.965 22.1872 116.965 17.2163ZM128.387 15.3467C128.236 12.9897 127.049 11.8556 124.984 11.8556C122.919 11.8556 121.732 13.1315 121.44 15.3467H128.387Z" fill="white"/>
            <path d="M99.4573 17.2163V16.9859C99.4108 15.9683 99.5654 14.9514 99.9122 13.9935C100.259 13.0356 100.791 12.1554 101.478 11.4033C102.165 10.6511 102.994 10.0418 103.917 9.61008C104.839 9.17836 105.838 8.93272 106.856 8.88721C107.06 8.88721 107.272 8.88721 107.476 8.88721C111.526 8.88721 115.088 11.2442 115.088 16.8619V18.0581H103.843C103.959 20.6454 105.359 22.1075 107.716 22.1075C109.745 22.1075 110.693 21.2214 110.967 19.9277H115.017C114.512 23.3037 111.818 25.1821 107.556 25.1821C102.886 25.1467 99.4573 22.1872 99.4573 17.2163ZM110.879 15.3467C110.728 12.9897 109.541 11.8556 107.476 11.8556C105.412 11.8556 104.26 13.167 103.932 15.3378L110.879 15.3467Z" fill="white"/>
            <path d="M74.8867 9.21533H79.4234L82.1968 19.7242L85.2361 9.21533H88.7804L91.5272 19.7242L94.4513 9.21533H98.607L93.6804 24.828H89.4272L86.769 15.028L83.9247 24.828H79.6184L74.8867 9.21533Z" fill="white"/>
            <path d="M60.4688 19.9191H64.5181C64.7042 21.328 65.4042 22.1343 67.265 22.1343C68.9308 22.1343 69.7017 21.5052 69.7017 20.4331C69.7017 19.3609 68.8156 18.909 66.5472 18.59C62.3915 17.9609 60.7877 16.7647 60.7877 13.7166C60.7877 10.4647 63.765 8.85205 66.9903 8.85205C70.4548 8.85205 73.0688 10.1103 73.4409 13.6989H69.4447C69.4192 13.4215 69.339 13.1518 69.2087 12.9056C69.0784 12.6593 68.9006 12.4414 68.6855 12.2642C68.4705 12.0871 68.2225 11.9543 67.9559 11.8736C67.6892 11.7928 67.4092 11.7657 67.132 11.7938H66.9991C65.5991 11.7938 64.7839 12.4495 64.7839 13.4065C64.7839 14.3634 65.5371 14.7799 67.8232 15.1077C71.7042 15.6926 73.8751 16.6761 73.8751 20.0166C73.8751 23.3571 71.4206 25.147 67.3093 25.147C63.1979 25.147 60.5839 23.2951 60.4688 19.9191Z" fill="white"/>
            <path d="M43.2617 9.21514H47.5503V11.6873C48.0337 10.7799 48.7674 10.0304 49.6643 9.52772C50.5612 9.02509 51.5835 8.79051 52.6098 8.85185C55.6491 8.85185 57.8554 10.7038 57.8554 14.9303V24.8632H53.6199V15.5506C53.6199 13.4329 52.7959 12.4227 50.882 12.4227C50.4774 12.3875 50.0699 12.4325 49.6829 12.5552C49.2958 12.6779 48.9368 12.8758 48.6264 13.1376C48.316 13.3995 48.0604 13.72 47.8742 14.0809C47.688 14.4417 47.5749 14.8358 47.5415 15.2405C47.5193 15.4288 47.5193 15.6192 47.5415 15.8076V24.8278H43.2617V9.21514Z" fill="white"/>
            <path d="M34.9858 5.28988C34.9703 4.86229 35.0819 4.4397 35.3067 4.07562C35.5315 3.71153 35.8592 3.42233 36.2484 3.24462C36.6377 3.06691 37.0709 3.00868 37.4932 3.07731C37.9155 3.14594 38.308 3.33834 38.6209 3.63016C38.9338 3.92197 39.1531 4.30007 39.2511 4.71659C39.349 5.13311 39.3211 5.56932 39.171 5.96998C39.0208 6.37065 38.7552 6.71776 38.4076 6.96737C38.0601 7.21697 37.6463 7.35785 37.2187 7.37216H37.139C36.8736 7.38896 36.6074 7.35319 36.3559 7.2669C36.1043 7.18062 35.8723 7.04551 35.673 6.86934C35.4738 6.69317 35.3113 6.4794 35.1949 6.24028C35.0785 6.00117 35.0105 5.74143 34.9947 5.47596C34.9873 5.41422 34.9843 5.35204 34.9858 5.28988ZM34.9858 9.2152H39.3187V24.8279H35.0035L34.9858 9.2152Z" fill="white"/>
            <path d="M18.6562 3.49121H32.355V7.27476H23.4942V12.9191H30.5119V16.5608H23.4854V24.8279H18.6562V3.49121Z" fill="white"/>
            <path d="M10.3886 10.4734C10.3886 11.8114 10.3886 13.4418 8.54557 14.1063C10.4329 14.7532 10.3886 16.1266 10.3886 17.562V22.8785C10.3886 23.8886 10.7962 24.5 11.5228 24.6506C11.6824 24.7045 11.8506 24.7285 12.019 24.7215H13.7911V28.2658H10.8671C7.7481 28.2658 6.02911 26.4937 6.02911 23.2063V16.9152C6.00699 16.5922 5.86458 16.2893 5.63 16.0662C5.39541 15.8431 5.08571 15.716 4.76203 15.7101H4V12.6H4.76203C5.09216 12.5956 5.40796 12.4644 5.64388 12.2334C5.87981 12.0024 6.01776 11.6895 6.02911 11.3595V4.97975C6.02911 1.74557 7.71266 0 10.8671 0H13.8177V3.49114H12.0456C11.877 3.49163 11.7096 3.51854 11.5494 3.57089C10.8228 3.75696 10.4152 4.35949 10.4152 5.34304L10.3886 10.4734Z" fill="white"/>
        </g>
        <defs>
            <filter id="filter0_d_1201_532__logo" x="0" y="0" width="148" height="36.3545" filterUnits="userSpaceOnUse" color-interpolation-filters="sRGB">
                <feFlood flood-opacity="0" result="BackgroundImageFix"/>
                <feColorMatrix in="SourceAlpha" type="matrix" values="0 0 0 0 0 0 0 0 0 0 0 0 0 0 0 0 0 0 127 0" result="hardAlpha"/>
                <feOffset dy="4"/>
                <feGaussianBlur stdDeviation="2"/>
                <feComposite in2="hardAlpha" operator="out"/>
                <feColorMatrix type="matrix" values="0 0 0 0 0 0 0 0 0 0 0 0 0 0 0 0 0 0 0.25 0"/>
                <feBlend mode="normal" in2="BackgroundImageFix" result="effect1_dropShadow_1201_532"/>
                <feBlend mode="normal" in="SourceGraphic" in2="effect1_dropShadow_1201_532" result="shape"/>
            </filter>
            <clipPath id="clip0_1201_532__logo">
                <rect width="140" height="28.3544" fill="white" transform="translate(4)"/>
            </clipPath>
        </defs>
    </symbol>
</svg>